<?xml version="1.0" encoding="UTF-8" standalone="no"?>
<!DOCTYPE svg PUBLIC "-//W3C//DTD SVG 1.1//EN"
 "http://www.w3.org/Graphics/SVG/1.1/DTD/svg11.dtd">
<!-- Generated by graphviz version 2.47.1 (0)
 -->
<!-- Pages: 1 -->
<svg width="547pt" height="261pt"
 viewBox="0.00 0.00 547.39 261.00" xmlns="http://www.w3.org/2000/svg" xmlns:xlink="http://www.w3.org/1999/xlink">
<g id="graph0" class="graph" transform="scale(1 1) rotate(0) translate(4 257)">
<polygon fill="white" stroke="transparent" points="-4,4 -4,-257 543.39,-257 543.39,4 -4,4"/>
<g id="clust1" class="cluster">
<title>cluster_fro</title>
<polygon fill="none" stroke="black" points="8,-62 8,-245 98.09,-245 98.09,-62 8,-62"/>
<text text-anchor="middle" x="53.05" y="-229.8" font-family="Times,serif" font-size="14.00">2017</text>
</g>
<g id="clust2" class="cluster">
<title>cluster_to</title>
<polygon fill="none" stroke="black" points="436.09,-8 436.09,-245 531.39,-245 531.39,-8 436.09,-8"/>
<text text-anchor="middle" x="483.74" y="-229.8" font-family="Times,serif" font-size="14.00">2022</text>
</g>
<!-- 115111 -->
<g id="node1" class="node">
<title>115111</title>
<ellipse fill="none" stroke="black" cx="53.05" cy="-196" rx="37.09" ry="18"/>
<text text-anchor="middle" x="53.05" y="-192.3" font-family="Times,serif" font-size="14.00">115111</text>
</g>
<!-- 115111  -->
<g id="node2" class="node">
<title>115111 </title>
<ellipse fill="none" stroke="black" cx="483.74" cy="-196" rx="39.79" ry="18"/>
<text text-anchor="middle" x="483.74" y="-192.3" font-family="Times,serif" font-size="14.00">115111 </text>
</g>
<!-- 115111&#45;&#45;115111  -->
<g id="edge1" class="edge">
<title>115111&#45;&#45;115111 </title>
<path fill="none" stroke="black" d="M90.23,-196C170.26,-196 361.73,-196 444.05,-196"/>
<text text-anchor="middle" x="267.09" y="-199.8" font-family="Times,serif" font-size="14.00">1&#45;to&#45;1 same</text>
</g>
<!-- 515112 -->
<g id="node3" class="node">
<title>515112</title>
<ellipse fill="none" stroke="black" cx="53.05" cy="-142" rx="37.09" ry="18"/>
<text text-anchor="middle" x="53.05" y="-138.3" font-family="Times,serif" font-size="14.00">515112</text>
</g>
<!-- 516110 -->
<g id="node4" class="node">
<title>516110</title>
<ellipse fill="none" stroke="black" cx="483.74" cy="-142" rx="37.09" ry="18"/>
<text text-anchor="middle" x="483.74" y="-138.3" font-family="Times,serif" font-size="14.00">516110</text>
</g>
<!-- 515112&#45;&#45;516110 -->
<g id="edge2" class="edge">
<title>515112&#45;&#45;516110</title>
<path fill="none" stroke="black" d="M90.23,-142C171.07,-142 365.61,-142 446.5,-142"/>
<text text-anchor="middle" x="267.09" y="-145.8" font-family="Times,serif" font-size="14.00">1&#45;to&#45;1 diff</text>
</g>
<!-- 325314 -->
<g id="node5" class="node">
<title>325314</title>
<ellipse fill="none" stroke="black" cx="53.05" cy="-88" rx="37.09" ry="18"/>
<text text-anchor="middle" x="53.05" y="-84.3" font-family="Times,serif" font-size="14.00">325314</text>
</g>
<!-- 325314  -->
<g id="node6" class="node">
<title>325314 </title>
<ellipse fill="none" stroke="black" cx="483.74" cy="-88" rx="39.79" ry="18"/>
<text text-anchor="middle" x="483.74" y="-84.3" font-family="Times,serif" font-size="14.00">325314 </text>
</g>
<!-- 325314&#45;&#45;325314  -->
<g id="edge3" class="edge">
<title>325314&#45;&#45;325314 </title>
<path fill="none" stroke="black" d="M90.23,-88C170.26,-88 361.73,-88 444.05,-88"/>
<text text-anchor="middle" x="267.09" y="-91.8" font-family="Times,serif" font-size="14.00">clean split</text>
</g>
<!-- 325315 -->
<g id="node7" class="node">
<title>325315</title>
<ellipse fill="none" stroke="black" cx="483.74" cy="-34" rx="37.09" ry="18"/>
<text text-anchor="middle" x="483.74" y="-30.3" font-family="Times,serif" font-size="14.00">325315</text>
</g>
<!-- 325314&#45;&#45;325315 -->
<g id="edge4" class="edge">
<title>325314&#45;&#45;325315</title>
<path fill="none" stroke="black" d="M89.13,-83.58C169.72,-73.43 367.3,-48.54 447.77,-38.4"/>
<text text-anchor="middle" x="267.09" y="-67.8" font-family="Times,serif" font-size="14.00">clean split</text>
</g>
</g>
</svg>
