<?xml version="1.0" encoding="UTF-8" standalone="no"?>
<!DOCTYPE svg PUBLIC "-//W3C//DTD SVG 1.1//EN"
 "http://www.w3.org/Graphics/SVG/1.1/DTD/svg11.dtd">
<!-- Generated by graphviz version 2.47.1 (0)
 -->
<!-- Pages: 1 -->
<svg width="498pt" height="207pt"
 viewBox="0.00 0.00 498.19 207.00" xmlns="http://www.w3.org/2000/svg" xmlns:xlink="http://www.w3.org/1999/xlink">
<g id="graph0" class="graph" transform="scale(1 1) rotate(0) translate(4 203)">
<polygon fill="white" stroke="transparent" points="-4,4 -4,-203 494.19,-203 494.19,4 -4,4"/>
<g id="clust1" class="cluster">
<title>cluster_fro</title>
<polygon fill="none" stroke="black" points="8,-8 8,-191 98.09,-191 98.09,-8 8,-8"/>
<text text-anchor="middle" x="53.05" y="-175.8" font-family="Times,serif" font-size="14.00">2012</text>
</g>
<g id="clust2" class="cluster">
<title>cluster_to</title>
<polygon fill="none" stroke="black" points="392.09,-62 392.09,-137 482.19,-137 482.19,-62 392.09,-62"/>
<text text-anchor="middle" x="437.14" y="-121.8" font-family="Times,serif" font-size="14.00">2017</text>
</g>
<!-- 454111 -->
<g id="node1" class="node">
<title>454111</title>
<ellipse fill="none" stroke="black" cx="53.05" cy="-142" rx="37.09" ry="18"/>
<text text-anchor="middle" x="53.05" y="-138.3" font-family="Times,serif" font-size="14.00">454111</text>
</g>
<!-- 454110 -->
<g id="node2" class="node">
<title>454110</title>
<ellipse fill="none" stroke="black" cx="437.14" cy="-88" rx="37.09" ry="18"/>
<text text-anchor="middle" x="437.14" y="-84.3" font-family="Times,serif" font-size="14.00">454110</text>
</g>
<!-- 454111&#45;&#45;454110 -->
<g id="edge1" class="edge">
<title>454111&#45;&#45;454110</title>
<path fill="none" stroke="black" d="M88.97,-137.06C161.74,-126.78 328.86,-103.16 401.44,-92.9"/>
<text text-anchor="middle" x="245.09" y="-118.8" font-family="Times,serif" font-size="14.00">join</text>
</g>
<!-- 454112 -->
<g id="node3" class="node">
<title>454112</title>
<ellipse fill="none" stroke="black" cx="53.05" cy="-88" rx="37.09" ry="18"/>
<text text-anchor="middle" x="53.05" y="-84.3" font-family="Times,serif" font-size="14.00">454112</text>
</g>
<!-- 454112&#45;&#45;454110 -->
<g id="edge2" class="edge">
<title>454112&#45;&#45;454110</title>
<path fill="none" stroke="black" d="M90.34,-88C163.36,-88 327.27,-88 400.09,-88"/>
<text text-anchor="middle" x="245.09" y="-91.8" font-family="Times,serif" font-size="14.00">join</text>
</g>
<!-- 454113 -->
<g id="node4" class="node">
<title>454113</title>
<ellipse fill="none" stroke="black" cx="53.05" cy="-34" rx="37.09" ry="18"/>
<text text-anchor="middle" x="53.05" y="-30.3" font-family="Times,serif" font-size="14.00">454113</text>
</g>
<!-- 454113&#45;&#45;454110 -->
<g id="edge3" class="edge">
<title>454113&#45;&#45;454110</title>
<path fill="none" stroke="black" d="M88.97,-38.94C161.74,-49.22 328.86,-72.84 401.44,-83.1"/>
<text text-anchor="middle" x="245.09" y="-64.8" font-family="Times,serif" font-size="14.00">join</text>
</g>
</g>
</svg>
