<?xml version="1.0" encoding="UTF-8" standalone="no"?>
<!DOCTYPE svg PUBLIC "-//W3C//DTD SVG 1.1//EN"
 "http://www.w3.org/Graphics/SVG/1.1/DTD/svg11.dtd">
<!-- Generated by graphviz version 2.47.1 (0)
 -->
<!-- Pages: 1 -->
<svg width="532pt" height="207pt"
 viewBox="0.00 0.00 532.19 207.00" xmlns="http://www.w3.org/2000/svg" xmlns:xlink="http://www.w3.org/1999/xlink">
<g id="graph0" class="graph" transform="scale(1 1) rotate(0) translate(4 203)">
<polygon fill="white" stroke="transparent" points="-4,4 -4,-203 528.19,-203 528.19,4 -4,4"/>
<g id="clust1" class="cluster">
<title>cluster_fro</title>
<polygon fill="none" stroke="black" points="8,-62 8,-137 98.09,-137 98.09,-62 8,-62"/>
<text text-anchor="middle" x="53.05" y="-121.8" font-family="Times,serif" font-size="14.00">2017</text>
</g>
<g id="clust2" class="cluster">
<title>cluster_to</title>
<polygon fill="none" stroke="black" points="426.09,-8 426.09,-191 516.19,-191 516.19,-8 426.09,-8"/>
<text text-anchor="middle" x="471.14" y="-175.8" font-family="Times,serif" font-size="14.00">2012</text>
</g>
<!-- 454110 -->
<g id="node1" class="node">
<title>454110</title>
<ellipse fill="none" stroke="black" cx="53.05" cy="-88" rx="37.09" ry="18"/>
<text text-anchor="middle" x="53.05" y="-84.3" font-family="Times,serif" font-size="14.00">454110</text>
</g>
<!-- 454111 -->
<g id="node2" class="node">
<title>454111</title>
<ellipse fill="none" stroke="black" cx="471.14" cy="-142" rx="37.09" ry="18"/>
<text text-anchor="middle" x="471.14" y="-138.3" font-family="Times,serif" font-size="14.00">454111</text>
</g>
<!-- 454110&#45;&#45;454111 -->
<g id="edge1" class="edge">
<title>454110&#45;&#45;454111</title>
<path fill="none" stroke="black" d="M89.16,-92.56C167.73,-102.75 356.92,-127.31 435.26,-137.47"/>
<text text-anchor="middle" x="262.09" y="-121.8" font-family="Times,serif" font-size="14.00">clean split</text>
</g>
<!-- 454112 -->
<g id="node3" class="node">
<title>454112</title>
<ellipse fill="none" stroke="black" cx="471.14" cy="-88" rx="37.09" ry="18"/>
<text text-anchor="middle" x="471.14" y="-84.3" font-family="Times,serif" font-size="14.00">454112</text>
</g>
<!-- 454110&#45;&#45;454112 -->
<g id="edge2" class="edge">
<title>454110&#45;&#45;454112</title>
<path fill="none" stroke="black" d="M90.24,-88C169.04,-88 355.31,-88 434.03,-88"/>
<text text-anchor="middle" x="262.09" y="-91.8" font-family="Times,serif" font-size="14.00">clean split</text>
</g>
<!-- 454113 -->
<g id="node4" class="node">
<title>454113</title>
<ellipse fill="none" stroke="black" cx="471.14" cy="-34" rx="37.09" ry="18"/>
<text text-anchor="middle" x="471.14" y="-30.3" font-family="Times,serif" font-size="14.00">454113</text>
</g>
<!-- 454110&#45;&#45;454113 -->
<g id="edge3" class="edge">
<title>454110&#45;&#45;454113</title>
<path fill="none" stroke="black" d="M89.16,-83.44C167.73,-73.25 356.92,-48.69 435.26,-38.53"/>
<text text-anchor="middle" x="262.09" y="-67.8" font-family="Times,serif" font-size="14.00">clean split</text>
</g>
</g>
</svg>
