<?xml version="1.0" encoding="UTF-8" standalone="no"?>
<!DOCTYPE svg PUBLIC "-//W3C//DTD SVG 1.1//EN"
 "http://www.w3.org/Graphics/SVG/1.1/DTD/svg11.dtd">
<!-- Generated by graphviz version 2.47.1 (0)
 -->
<!-- Pages: 1 -->
<svg width="538pt" height="1125pt"
 viewBox="0.00 0.00 538.19 1125.00" xmlns="http://www.w3.org/2000/svg" xmlns:xlink="http://www.w3.org/1999/xlink">
<g id="graph0" class="graph" transform="scale(1 1) rotate(0) translate(4 1121)">
<polygon fill="white" stroke="transparent" points="-4,4 -4,-1121 534.19,-1121 534.19,4 -4,4"/>
<g id="clust1" class="cluster">
<title>cluster_fro</title>
<polygon fill="none" stroke="black" points="8,-8 8,-1109 98.09,-1109 98.09,-8 8,-8"/>
<text text-anchor="middle" x="53.05" y="-1093.8" font-family="Times,serif" font-size="14.00">2012</text>
</g>
<g id="clust2" class="cluster">
<title>cluster_to</title>
<polygon fill="none" stroke="black" points="432.09,-164 432.09,-833 522.19,-833 522.19,-164 432.09,-164"/>
<text text-anchor="middle" x="477.14" y="-817.8" font-family="Times,serif" font-size="14.00">2017</text>
</g>
<!-- 211111 -->
<g id="node1" class="node">
<title>211111</title>
<ellipse fill="none" stroke="black" cx="53.05" cy="-1060" rx="37.09" ry="18"/>
<text text-anchor="middle" x="53.05" y="-1056.3" font-family="Times,serif" font-size="14.00">211111</text>
</g>
<!-- 211120 -->
<g id="node2" class="node">
<title>211120</title>
<ellipse fill="none" stroke="black" cx="477.14" cy="-784" rx="37.09" ry="18"/>
<text text-anchor="middle" x="477.14" y="-780.3" font-family="Times,serif" font-size="14.00">211120</text>
</g>
<!-- 211111&#45;&#45;211120 -->
<g id="edge1" class="edge">
<title>211111&#45;&#45;211120</title>
<path fill="none" stroke="black" d="M88.81,-1065.26C138.39,-1070.97 230.66,-1074.77 296.09,-1037 392.98,-981.08 451.09,-849.59 469.63,-801.78"/>
<text text-anchor="middle" x="265.09" y="-1063.8" font-family="Times,serif" font-size="14.00">messy split</text>
</g>
<!-- 211130 -->
<g id="node3" class="node">
<title>211130</title>
<ellipse fill="none" stroke="black" cx="477.14" cy="-730" rx="37.09" ry="18"/>
<text text-anchor="middle" x="477.14" y="-726.3" font-family="Times,serif" font-size="14.00">211130</text>
</g>
<!-- 211111&#45;&#45;211130 -->
<g id="edge2" class="edge">
<title>211111&#45;&#45;211130</title>
<path fill="none" stroke="black" d="M86.82,-1052.39C148.99,-1037.75 279.37,-1005.95 296.09,-993 391.8,-918.87 347.66,-843.75 432.09,-757 437.35,-751.6 443.9,-746.84 450.32,-742.87"/>
<text text-anchor="middle" x="265.09" y="-1016.8" font-family="Times,serif" font-size="14.00">messy split</text>
</g>
<!-- 211112 -->
<g id="node4" class="node">
<title>211112</title>
<ellipse fill="none" stroke="black" cx="53.05" cy="-1006" rx="37.09" ry="18"/>
<text text-anchor="middle" x="53.05" y="-1002.3" font-family="Times,serif" font-size="14.00">211112</text>
</g>
<!-- 211112&#45;&#45;211130 -->
<g id="edge3" class="edge">
<title>211112&#45;&#45;211130</title>
<path fill="none" stroke="black" d="M89.1,-1001.53C147.7,-993.53 262.49,-975.49 296.09,-953 384.2,-894.02 355.03,-829.82 432.09,-757 437.7,-751.7 444.51,-746.92 451.08,-742.9"/>
<text text-anchor="middle" x="265.09" y="-977.8" font-family="Times,serif" font-size="14.00">join</text>
</g>
<!-- 212231 -->
<g id="node5" class="node">
<title>212231</title>
<ellipse fill="none" stroke="black" cx="53.05" cy="-952" rx="37.09" ry="18"/>
<text text-anchor="middle" x="53.05" y="-948.3" font-family="Times,serif" font-size="14.00">212231</text>
</g>
<!-- 212230 -->
<g id="node6" class="node">
<title>212230</title>
<ellipse fill="none" stroke="black" cx="477.14" cy="-676" rx="37.09" ry="18"/>
<text text-anchor="middle" x="477.14" y="-672.3" font-family="Times,serif" font-size="14.00">212230</text>
</g>
<!-- 212231&#45;&#45;212230 -->
<g id="edge4" class="edge">
<title>212231&#45;&#45;212230</title>
<path fill="none" stroke="black" d="M90.41,-950.69C140.7,-947.26 232.45,-935.07 296.09,-892 381.79,-833.99 356.27,-773.43 432.09,-703 437.75,-697.75 444.57,-692.98 451.14,-688.96"/>
<text text-anchor="middle" x="265.09" y="-925.8" font-family="Times,serif" font-size="14.00">join</text>
</g>
<!-- 212234 -->
<g id="node7" class="node">
<title>212234</title>
<ellipse fill="none" stroke="black" cx="53.05" cy="-898" rx="37.09" ry="18"/>
<text text-anchor="middle" x="53.05" y="-894.3" font-family="Times,serif" font-size="14.00">212234</text>
</g>
<!-- 212234&#45;&#45;212230 -->
<g id="edge5" class="edge">
<title>212234&#45;&#45;212230</title>
<path fill="none" stroke="black" d="M90.46,-897.24C140,-894.75 230.02,-885.01 296.09,-848 373.18,-804.82 363.59,-758.81 432.09,-703 438.07,-698.13 445.01,-693.48 451.58,-689.46"/>
<text text-anchor="middle" x="265.09" y="-876.8" font-family="Times,serif" font-size="14.00">join</text>
</g>
<!-- 333911 -->
<g id="node8" class="node">
<title>333911</title>
<ellipse fill="none" stroke="black" cx="53.05" cy="-844" rx="37.09" ry="18"/>
<text text-anchor="middle" x="53.05" y="-840.3" font-family="Times,serif" font-size="14.00">333911</text>
</g>
<!-- 333914 -->
<g id="node9" class="node">
<title>333914</title>
<ellipse fill="none" stroke="black" cx="477.14" cy="-622" rx="37.09" ry="18"/>
<text text-anchor="middle" x="477.14" y="-618.3" font-family="Times,serif" font-size="14.00">333914</text>
</g>
<!-- 333911&#45;&#45;333914 -->
<g id="edge6" class="edge">
<title>333911&#45;&#45;333914</title>
<path fill="none" stroke="black" d="M89.38,-840.1C138.45,-833.48 228.79,-816.88 296.09,-779 368.96,-737.99 365.85,-700.03 432.09,-649 438.35,-644.18 445.51,-639.49 452.21,-635.4"/>
<text text-anchor="middle" x="265.09" y="-807.8" font-family="Times,serif" font-size="14.00">join</text>
</g>
<!-- 333913 -->
<g id="node10" class="node">
<title>333913</title>
<ellipse fill="none" stroke="black" cx="53.05" cy="-790" rx="37.09" ry="18"/>
<text text-anchor="middle" x="53.05" y="-786.3" font-family="Times,serif" font-size="14.00">333913</text>
</g>
<!-- 333913&#45;&#45;333914 -->
<g id="edge7" class="edge">
<title>333913&#45;&#45;333914</title>
<path fill="none" stroke="black" d="M89.8,-787.19C138.2,-782.41 226.51,-770.19 296.09,-741 363.39,-712.77 370.75,-688.52 432.09,-649 438.88,-644.63 446.34,-639.99 453.16,-635.82"/>
<text text-anchor="middle" x="265.09" y="-763.8" font-family="Times,serif" font-size="14.00">join</text>
</g>
<!-- 335221 -->
<g id="node11" class="node">
<title>335221</title>
<ellipse fill="none" stroke="black" cx="53.05" cy="-736" rx="37.09" ry="18"/>
<text text-anchor="middle" x="53.05" y="-732.3" font-family="Times,serif" font-size="14.00">335221</text>
</g>
<!-- 335220 -->
<g id="node12" class="node">
<title>335220</title>
<ellipse fill="none" stroke="black" cx="477.14" cy="-568" rx="37.09" ry="18"/>
<text text-anchor="middle" x="477.14" y="-564.3" font-family="Times,serif" font-size="14.00">335220</text>
</g>
<!-- 335221&#45;&#45;335220 -->
<g id="edge8" class="edge">
<title>335221&#45;&#45;335220</title>
<path fill="none" stroke="black" d="M85.04,-726.8C131.51,-712.71 221.7,-684.24 296.09,-654 352.73,-630.97 416.86,-598.82 451.22,-581.07"/>
<text text-anchor="middle" x="265.09" y="-679.8" font-family="Times,serif" font-size="14.00">join</text>
</g>
<!-- 335222 -->
<g id="node13" class="node">
<title>335222</title>
<ellipse fill="none" stroke="black" cx="53.05" cy="-682" rx="37.09" ry="18"/>
<text text-anchor="middle" x="53.05" y="-678.3" font-family="Times,serif" font-size="14.00">335222</text>
</g>
<!-- 335222&#45;&#45;335220 -->
<g id="edge9" class="edge">
<title>335222&#45;&#45;335220</title>
<path fill="none" stroke="black" d="M86.62,-673.99C133.18,-662.47 221.38,-640.35 296.09,-620 348.52,-605.72 409.16,-587.94 445,-577.31"/>
<text text-anchor="middle" x="265.09" y="-638.8" font-family="Times,serif" font-size="14.00">join</text>
</g>
<!-- 335224 -->
<g id="node14" class="node">
<title>335224</title>
<ellipse fill="none" stroke="black" cx="53.05" cy="-628" rx="37.09" ry="18"/>
<text text-anchor="middle" x="53.05" y="-624.3" font-family="Times,serif" font-size="14.00">335224</text>
</g>
<!-- 335224&#45;&#45;335220 -->
<g id="edge10" class="edge">
<title>335224&#45;&#45;335220</title>
<path fill="none" stroke="black" d="M88.95,-623.04C168.45,-611.74 362.24,-584.19 441.49,-572.92"/>
<text text-anchor="middle" x="265.09" y="-604.8" font-family="Times,serif" font-size="14.00">join</text>
</g>
<!-- 335228 -->
<g id="node15" class="node">
<title>335228</title>
<ellipse fill="none" stroke="black" cx="53.05" cy="-574" rx="37.09" ry="18"/>
<text text-anchor="middle" x="53.05" y="-570.3" font-family="Times,serif" font-size="14.00">335228</text>
</g>
<!-- 335228&#45;&#45;335220 -->
<g id="edge11" class="edge">
<title>335228&#45;&#45;335220</title>
<path fill="none" stroke="black" d="M90.4,-573.48C170.29,-572.35 360.36,-569.65 440.02,-568.51"/>
<text text-anchor="middle" x="265.09" y="-574.8" font-family="Times,serif" font-size="14.00">join</text>
</g>
<!-- 452111 -->
<g id="node16" class="node">
<title>452111</title>
<ellipse fill="none" stroke="black" cx="53.05" cy="-520" rx="37.09" ry="18"/>
<text text-anchor="middle" x="53.05" y="-516.3" font-family="Times,serif" font-size="14.00">452111</text>
</g>
<!-- 452210 -->
<g id="node17" class="node">
<title>452210</title>
<ellipse fill="none" stroke="black" cx="477.14" cy="-514" rx="37.09" ry="18"/>
<text text-anchor="middle" x="477.14" y="-510.3" font-family="Times,serif" font-size="14.00">452210</text>
</g>
<!-- 452111&#45;&#45;452210 -->
<g id="edge12" class="edge">
<title>452111&#45;&#45;452210</title>
<path fill="none" stroke="black" d="M90.4,-519.48C170.29,-518.35 360.36,-515.65 440.02,-514.51"/>
<text text-anchor="middle" x="265.09" y="-520.8" font-family="Times,serif" font-size="14.00">join</text>
</g>
<!-- 452112 -->
<g id="node18" class="node">
<title>452112</title>
<ellipse fill="none" stroke="black" cx="53.05" cy="-466" rx="37.09" ry="18"/>
<text text-anchor="middle" x="53.05" y="-462.3" font-family="Times,serif" font-size="14.00">452112</text>
</g>
<!-- 452112&#45;&#45;452210 -->
<g id="edge13" class="edge">
<title>452112&#45;&#45;452210</title>
<path fill="none" stroke="black" d="M89.31,-470.01C168.86,-479.06 361.52,-500.97 440.98,-510"/>
<text text-anchor="middle" x="265.09" y="-495.8" font-family="Times,serif" font-size="14.00">messy split</text>
</g>
<!-- 452311 -->
<g id="node19" class="node">
<title>452311</title>
<ellipse fill="none" stroke="black" cx="477.14" cy="-460" rx="37.09" ry="18"/>
<text text-anchor="middle" x="477.14" y="-456.3" font-family="Times,serif" font-size="14.00">452311</text>
</g>
<!-- 452112&#45;&#45;452311 -->
<g id="edge14" class="edge">
<title>452112&#45;&#45;452311</title>
<path fill="none" stroke="black" d="M89.9,-463.68C126.22,-461.45 184.03,-458.25 234.09,-457 307.19,-455.17 392.74,-457.22 440.05,-458.71"/>
<text text-anchor="middle" x="265.09" y="-460.8" font-family="Times,serif" font-size="14.00">messy split</text>
</g>
<!-- 452910 -->
<g id="node20" class="node">
<title>452910</title>
<ellipse fill="none" stroke="black" cx="53.05" cy="-412" rx="37.09" ry="18"/>
<text text-anchor="middle" x="53.05" y="-408.3" font-family="Times,serif" font-size="14.00">452910</text>
</g>
<!-- 452910&#45;&#45;452311 -->
<g id="edge15" class="edge">
<title>452910&#45;&#45;452311</title>
<path fill="none" stroke="black" d="M89.76,-415.42C137,-420 222.86,-428.54 296.09,-437 346.65,-442.84 405.07,-450.46 441.32,-455.3"/>
<text text-anchor="middle" x="265.09" y="-440.8" font-family="Times,serif" font-size="14.00">join</text>
</g>
<!-- 454111 -->
<g id="node21" class="node">
<title>454111</title>
<ellipse fill="none" stroke="black" cx="53.05" cy="-358" rx="37.09" ry="18"/>
<text text-anchor="middle" x="53.05" y="-354.3" font-family="Times,serif" font-size="14.00">454111</text>
</g>
<!-- 454110 -->
<g id="node22" class="node">
<title>454110</title>
<ellipse fill="none" stroke="black" cx="477.14" cy="-406" rx="37.09" ry="18"/>
<text text-anchor="middle" x="477.14" y="-402.3" font-family="Times,serif" font-size="14.00">454110</text>
</g>
<!-- 454111&#45;&#45;454110 -->
<g id="edge16" class="edge">
<title>454111&#45;&#45;454110</title>
<path fill="none" stroke="black" d="M89.31,-362.01C168.86,-371.06 361.52,-392.97 440.98,-402"/>
<text text-anchor="middle" x="265.09" y="-387.8" font-family="Times,serif" font-size="14.00">join</text>
</g>
<!-- 454112 -->
<g id="node23" class="node">
<title>454112</title>
<ellipse fill="none" stroke="black" cx="53.05" cy="-304" rx="37.09" ry="18"/>
<text text-anchor="middle" x="53.05" y="-300.3" font-family="Times,serif" font-size="14.00">454112</text>
</g>
<!-- 454112&#45;&#45;454110 -->
<g id="edge17" class="edge">
<title>454112&#45;&#45;454110</title>
<path fill="none" stroke="black" d="M86.99,-311.37C133.62,-321.86 221.5,-341.84 296.09,-360 348.13,-372.67 408.39,-388.25 444.32,-397.64"/>
<text text-anchor="middle" x="265.09" y="-363.8" font-family="Times,serif" font-size="14.00">join</text>
</g>
<!-- 454113 -->
<g id="node24" class="node">
<title>454113</title>
<ellipse fill="none" stroke="black" cx="53.05" cy="-250" rx="37.09" ry="18"/>
<text text-anchor="middle" x="53.05" y="-246.3" font-family="Times,serif" font-size="14.00">454113</text>
</g>
<!-- 454113&#45;&#45;454110 -->
<g id="edge18" class="edge">
<title>454113&#45;&#45;454110</title>
<path fill="none" stroke="black" d="M85.77,-258.71C132.39,-271.79 221.93,-297.98 296.09,-326 352.09,-347.15 415.66,-376.77 450.29,-393.39"/>
<text text-anchor="middle" x="265.09" y="-329.8" font-family="Times,serif" font-size="14.00">join</text>
</g>
<!-- 512210 -->
<g id="node25" class="node">
<title>512210</title>
<ellipse fill="none" stroke="black" cx="53.05" cy="-196" rx="37.09" ry="18"/>
<text text-anchor="middle" x="53.05" y="-192.3" font-family="Times,serif" font-size="14.00">512210</text>
</g>
<!-- 512250 -->
<g id="node26" class="node">
<title>512250</title>
<ellipse fill="none" stroke="black" cx="477.14" cy="-352" rx="37.09" ry="18"/>
<text text-anchor="middle" x="477.14" y="-348.3" font-family="Times,serif" font-size="14.00">512250</text>
</g>
<!-- 512210&#45;&#45;512250 -->
<g id="edge19" class="edge">
<title>512210&#45;&#45;512250</title>
<path fill="none" stroke="black" d="M83.06,-206.72C160.26,-235.26 370.09,-312.81 447.2,-341.31"/>
<text text-anchor="middle" x="265.09" y="-286.8" font-family="Times,serif" font-size="14.00">join</text>
</g>
<!-- 512220 -->
<g id="node27" class="node">
<title>512220</title>
<ellipse fill="none" stroke="black" cx="53.05" cy="-142" rx="37.09" ry="18"/>
<text text-anchor="middle" x="53.05" y="-138.3" font-family="Times,serif" font-size="14.00">512220</text>
</g>
<!-- 512220&#45;&#45;512250 -->
<g id="edge20" class="edge">
<title>512220&#45;&#45;512250</title>
<path fill="none" stroke="black" d="M82.93,-152.84C128.89,-170.41 221.15,-207 296.09,-245 311.9,-253.02 408.09,-310.9 453.04,-338.03"/>
<text text-anchor="middle" x="265.09" y="-248.8" font-family="Times,serif" font-size="14.00">join</text>
</g>
<!-- 541711 -->
<g id="node28" class="node">
<title>541711</title>
<ellipse fill="none" stroke="black" cx="53.05" cy="-88" rx="37.09" ry="18"/>
<text text-anchor="middle" x="53.05" y="-84.3" font-family="Times,serif" font-size="14.00">541711</text>
</g>
<!-- 541713 -->
<g id="node29" class="node">
<title>541713</title>
<ellipse fill="none" stroke="black" cx="477.14" cy="-244" rx="37.09" ry="18"/>
<text text-anchor="middle" x="477.14" y="-240.3" font-family="Times,serif" font-size="14.00">541713</text>
</g>
<!-- 541711&#45;&#45;541713 -->
<g id="edge21" class="edge">
<title>541711&#45;&#45;541713</title>
<path fill="none" stroke="black" d="M89.04,-92.72C136.95,-99.89 225.11,-115.69 296.09,-143 328.04,-155.29 412.54,-205.46 453.39,-230.15"/>
<text text-anchor="middle" x="265.09" y="-146.8" font-family="Times,serif" font-size="14.00">messy split</text>
</g>
<!-- 541714 -->
<g id="node30" class="node">
<title>541714</title>
<ellipse fill="none" stroke="black" cx="477.14" cy="-298" rx="37.09" ry="18"/>
<text text-anchor="middle" x="477.14" y="-294.3" font-family="Times,serif" font-size="14.00">541714</text>
</g>
<!-- 541711&#45;&#45;541714 -->
<g id="edge22" class="edge">
<title>541711&#45;&#45;541714</title>
<path fill="none" stroke="black" d="M81.64,-99.49C126.96,-118.56 219.76,-158.5 296.09,-197 353.69,-226.05 419.31,-264.18 453.19,-284.26"/>
<text text-anchor="middle" x="265.09" y="-200.8" font-family="Times,serif" font-size="14.00">messy split</text>
</g>
<!-- 541712 -->
<g id="node31" class="node">
<title>541712</title>
<ellipse fill="none" stroke="black" cx="53.05" cy="-34" rx="37.09" ry="18"/>
<text text-anchor="middle" x="53.05" y="-30.3" font-family="Times,serif" font-size="14.00">541712</text>
</g>
<!-- 541712&#45;&#45;541713 -->
<g id="edge23" class="edge">
<title>541712&#45;&#45;541713</title>
<path fill="none" stroke="black" d="M88.6,-39.38C137.15,-47.94 227.3,-67.53 296.09,-104 365.53,-140.8 368.21,-171.24 432.09,-217 438.51,-221.6 445.72,-226.22 452.42,-230.32"/>
<text text-anchor="middle" x="265.09" y="-107.8" font-family="Times,serif" font-size="14.00">messy split</text>
</g>
<!-- 541715 -->
<g id="node32" class="node">
<title>541715</title>
<ellipse fill="none" stroke="black" cx="477.14" cy="-190" rx="37.09" ry="18"/>
<text text-anchor="middle" x="477.14" y="-186.3" font-family="Times,serif" font-size="14.00">541715</text>
</g>
<!-- 541712&#45;&#45;541715 -->
<g id="edge24" class="edge">
<title>541712&#45;&#45;541715</title>
<path fill="none" stroke="black" d="M89.87,-30.88C138.36,-28 226.76,-27.53 296.09,-54 365.99,-80.69 431.81,-143.26 460.73,-173.31"/>
<text text-anchor="middle" x="265.09" y="-57.8" font-family="Times,serif" font-size="14.00">messy split</text>
</g>
</g>
</svg>
