<?xml version="1.0" encoding="UTF-8" standalone="no"?>
<!DOCTYPE svg PUBLIC "-//W3C//DTD SVG 1.1//EN"
 "http://www.w3.org/Graphics/SVG/1.1/DTD/svg11.dtd">
<!-- Generated by graphviz version 2.47.1 (0)
 -->
<!-- Pages: 1 -->
<svg width="538pt" height="207pt"
 viewBox="0.00 0.00 538.19 207.00" xmlns="http://www.w3.org/2000/svg" xmlns:xlink="http://www.w3.org/1999/xlink">
<g id="graph0" class="graph" transform="scale(1 1) rotate(0) translate(4 203)">
<polygon fill="white" stroke="transparent" points="-4,4 -4,-203 534.19,-203 534.19,4 -4,4"/>
<g id="clust1" class="cluster">
<title>cluster_fro</title>
<polygon fill="none" stroke="black" points="8,-8 8,-191 98.09,-191 98.09,-8 8,-8"/>
<text text-anchor="middle" x="53.05" y="-175.8" font-family="Times,serif" font-size="14.00">2017</text>
</g>
<g id="clust2" class="cluster">
<title>cluster_to</title>
<polygon fill="none" stroke="black" points="432.09,-35 432.09,-164 522.19,-164 522.19,-35 432.09,-35"/>
<text text-anchor="middle" x="477.14" y="-148.8" font-family="Times,serif" font-size="14.00">2022</text>
</g>
<!-- 212111 -->
<g id="node1" class="node">
<title>212111</title>
<ellipse fill="none" stroke="black" cx="53.05" cy="-142" rx="37.09" ry="18"/>
<text text-anchor="middle" x="53.05" y="-138.3" font-family="Times,serif" font-size="14.00">212111</text>
</g>
<!-- 212114 -->
<g id="node2" class="node">
<title>212114</title>
<ellipse fill="none" stroke="black" cx="477.14" cy="-115" rx="37.09" ry="18"/>
<text text-anchor="middle" x="477.14" y="-111.3" font-family="Times,serif" font-size="14.00">212114</text>
</g>
<!-- 212111&#45;&#45;212114 -->
<g id="edge1" class="edge">
<title>212111&#45;&#45;212114</title>
<path fill="none" stroke="black" d="M90.03,-139.7C169.78,-134.6 360.58,-122.39 440.24,-117.3"/>
<text text-anchor="middle" x="265.09" y="-133.8" font-family="Times,serif" font-size="14.00">join</text>
</g>
<!-- 212112 -->
<g id="node3" class="node">
<title>212112</title>
<ellipse fill="none" stroke="black" cx="53.05" cy="-34" rx="37.09" ry="18"/>
<text text-anchor="middle" x="53.05" y="-30.3" font-family="Times,serif" font-size="14.00">212112</text>
</g>
<!-- 212115 -->
<g id="node4" class="node">
<title>212115</title>
<ellipse fill="none" stroke="black" cx="477.14" cy="-61" rx="37.09" ry="18"/>
<text text-anchor="middle" x="477.14" y="-57.3" font-family="Times,serif" font-size="14.00">212115</text>
</g>
<!-- 212112&#45;&#45;212115 -->
<g id="edge2" class="edge">
<title>212112&#45;&#45;212115</title>
<path fill="none" stroke="black" d="M90.2,-31.72C137.58,-29.19 223.21,-26.17 296.09,-32 347.69,-36.13 406.82,-46.81 442.82,-53.99"/>
<text text-anchor="middle" x="265.09" y="-35.8" font-family="Times,serif" font-size="14.00">join</text>
</g>
<!-- 212113 -->
<g id="node5" class="node">
<title>212113</title>
<ellipse fill="none" stroke="black" cx="53.05" cy="-88" rx="37.09" ry="18"/>
<text text-anchor="middle" x="53.05" y="-84.3" font-family="Times,serif" font-size="14.00">212113</text>
</g>
<!-- 212113&#45;&#45;212114 -->
<g id="edge3" class="edge">
<title>212113&#45;&#45;212114</title>
<path fill="none" stroke="black" d="M90.03,-90.3C169.78,-95.4 360.58,-107.61 440.24,-112.7"/>
<text text-anchor="middle" x="265.09" y="-106.8" font-family="Times,serif" font-size="14.00">messy split</text>
</g>
<!-- 212113&#45;&#45;212115 -->
<g id="edge4" class="edge">
<title>212113&#45;&#45;212115</title>
<path fill="none" stroke="black" d="M90.03,-85.7C169.78,-80.6 360.58,-68.39 440.24,-63.3"/>
<text text-anchor="middle" x="265.09" y="-79.8" font-family="Times,serif" font-size="14.00">messy split</text>
</g>
</g>
</svg>
